<?xml version="1.0" encoding="UTF-8" standalone="no"?>
<!DOCTYPE svg PUBLIC "-//W3C//DTD SVG 1.1//EN"
 "http://www.w3.org/Graphics/SVG/1.1/DTD/svg11.dtd">
<!-- Generated by graphviz version 2.28.0 (20111025.1818)
 -->
<!-- Title: G Pages: 1 -->
<svg width="456pt" height="936pt"
 viewBox="0.00 0.00 456.00 936.00" xmlns="http://www.w3.org/2000/svg" xmlns:xlink="http://www.w3.org/1999/xlink">
<g id="graph1" class="graph" transform="scale(1 1) rotate(0) translate(4 932)">
<title>G</title>
<polygon fill="white" stroke="white" points="-4,5 -4,-932 453,-932 453,5 -4,5"/>
<g id="graph3" class="cluster"><title>cluster_sambhuti</title>
<polyline fill="none" stroke="gray" points="20,-8 428,-8 "/>
<path fill="none" stroke="gray" d="M428,-8C434,-8 440,-14 440,-20"/>
<polyline fill="none" stroke="gray" points="440,-20 440,-908 "/>
<path fill="none" stroke="gray" d="M440,-908C440,-914 434,-920 428,-920"/>
<polyline fill="none" stroke="gray" points="428,-920 20,-920 "/>
<path fill="none" stroke="gray" d="M20,-920C14,-920 8,-914 8,-908"/>
<polyline fill="none" stroke="gray" points="8,-908 8,-20 "/>
<path fill="none" stroke="gray" d="M8,-20C8,-14 14,-8 20,-8"/>
<text text-anchor="middle" x="224" y="-907.2" font-family="Times,serif" font-size="11.00" fill="gray">sambhuti</text>
</g>
<g id="graph4" class="cluster"><title>cluster_sambhuti\cache</title>
<polyline fill="none" stroke="gray" points="202,-766 248,-766 "/>
<path fill="none" stroke="gray" d="M248,-766C254,-766 260,-772 260,-778"/>
<polyline fill="none" stroke="gray" points="260,-778 260,-880 "/>
<path fill="none" stroke="gray" d="M260,-880C260,-886 254,-892 248,-892"/>
<polyline fill="none" stroke="gray" points="248,-892 202,-892 "/>
<path fill="none" stroke="gray" d="M202,-892C196,-892 190,-886 190,-880"/>
<polyline fill="none" stroke="gray" points="190,-880 190,-778 "/>
<path fill="none" stroke="gray" d="M190,-778C190,-772 196,-766 202,-766"/>
<text text-anchor="middle" x="225" y="-879.2" font-family="Times,serif" font-size="11.00" fill="gray">cache</text>
</g>
<g id="graph5" class="cluster"><title>cluster_sambhuti\config</title>
<polyline fill="none" stroke="gray" points="200,-686 250,-686 "/>
<path fill="none" stroke="gray" d="M250,-686C256,-686 262,-692 262,-698"/>
<polyline fill="none" stroke="gray" points="262,-698 262,-746 "/>
<path fill="none" stroke="gray" d="M262,-746C262,-752 256,-758 250,-758"/>
<polyline fill="none" stroke="gray" points="250,-758 200,-758 "/>
<path fill="none" stroke="gray" d="M200,-758C194,-758 188,-752 188,-746"/>
<polyline fill="none" stroke="gray" points="188,-746 188,-698 "/>
<path fill="none" stroke="gray" d="M188,-698C188,-692 194,-686 200,-686"/>
<text text-anchor="middle" x="225" y="-745.2" font-family="Times,serif" font-size="11.00" fill="gray">config</text>
</g>
<g id="graph6" class="cluster"><title>cluster_sambhuti\controller</title>
<polyline fill="none" stroke="gray" points="186,-444 420,-444 "/>
<path fill="none" stroke="gray" d="M420,-444C426,-444 432,-450 432,-456"/>
<polyline fill="none" stroke="gray" points="432,-456 432,-666 "/>
<path fill="none" stroke="gray" d="M432,-666C432,-672 426,-678 420,-678"/>
<polyline fill="none" stroke="gray" points="420,-678 186,-678 "/>
<path fill="none" stroke="gray" d="M186,-678C180,-678 174,-672 174,-666"/>
<polyline fill="none" stroke="gray" points="174,-666 174,-456 "/>
<path fill="none" stroke="gray" d="M174,-456C174,-450 180,-444 186,-444"/>
<text text-anchor="middle" x="303" y="-665.2" font-family="Times,serif" font-size="11.00" fill="gray">controller</text>
</g>
<g id="graph7" class="cluster"><title>cluster_sambhuti\core</title>
<polyline fill="none" stroke="gray" points="28,-96 248,-96 "/>
<path fill="none" stroke="gray" d="M248,-96C254,-96 260,-102 260,-108"/>
<polyline fill="none" stroke="gray" points="260,-108 260,-264 "/>
<path fill="none" stroke="gray" d="M260,-264C260,-270 254,-276 248,-276"/>
<polyline fill="none" stroke="gray" points="248,-276 28,-276 "/>
<path fill="none" stroke="gray" d="M28,-276C22,-276 16,-270 16,-264"/>
<polyline fill="none" stroke="gray" points="16,-264 16,-108 "/>
<path fill="none" stroke="gray" d="M16,-108C16,-102 22,-96 28,-96"/>
<text text-anchor="middle" x="138" y="-263.2" font-family="Times,serif" font-size="11.00" fill="gray">core</text>
</g>
<g id="graph8" class="cluster"><title>cluster_sambhuti\loader</title>
<polyline fill="none" stroke="gray" points="200,-364 250,-364 "/>
<path fill="none" stroke="gray" d="M250,-364C256,-364 262,-370 262,-376"/>
<polyline fill="none" stroke="gray" points="262,-376 262,-424 "/>
<path fill="none" stroke="gray" d="M262,-424C262,-430 256,-436 250,-436"/>
<polyline fill="none" stroke="gray" points="250,-436 200,-436 "/>
<path fill="none" stroke="gray" d="M200,-436C194,-436 188,-430 188,-424"/>
<polyline fill="none" stroke="gray" points="188,-424 188,-376 "/>
<path fill="none" stroke="gray" d="M188,-376C188,-370 194,-364 200,-364"/>
<text text-anchor="middle" x="225" y="-423.2" font-family="Times,serif" font-size="11.00" fill="gray">loader</text>
</g>
<g id="graph9" class="cluster"><title>cluster_sambhuti\model</title>
<polyline fill="none" stroke="gray" points="202,-284 248,-284 "/>
<path fill="none" stroke="gray" d="M248,-284C254,-284 260,-290 260,-296"/>
<polyline fill="none" stroke="gray" points="260,-296 260,-344 "/>
<path fill="none" stroke="gray" d="M260,-344C260,-350 254,-356 248,-356"/>
<polyline fill="none" stroke="gray" points="248,-356 202,-356 "/>
<path fill="none" stroke="gray" d="M202,-356C196,-356 190,-350 190,-344"/>
<polyline fill="none" stroke="gray" points="190,-344 190,-296 "/>
<path fill="none" stroke="gray" d="M190,-296C190,-290 196,-284 202,-284"/>
<text text-anchor="middle" x="225" y="-343.2" font-family="Times,serif" font-size="11.00" fill="gray">model</text>
</g>
<g id="graph10" class="cluster"><title>cluster_sambhuti\request</title>
<polyline fill="none" stroke="gray" points="197,-16 253,-16 "/>
<path fill="none" stroke="gray" d="M253,-16C259,-16 265,-22 265,-28"/>
<polyline fill="none" stroke="gray" points="265,-28 265,-76 "/>
<path fill="none" stroke="gray" d="M265,-76C265,-82 259,-88 253,-88"/>
<polyline fill="none" stroke="gray" points="253,-88 197,-88 "/>
<path fill="none" stroke="gray" d="M197,-88C191,-88 185,-82 185,-76"/>
<polyline fill="none" stroke="gray" points="185,-76 185,-28 "/>
<path fill="none" stroke="gray" d="M185,-28C185,-22 191,-16 197,-16"/>
<text text-anchor="middle" x="225" y="-75.2" font-family="Times,serif" font-size="11.00" fill="gray">request</text>
</g>
<!-- \\sambhuti\\cache\\cache -->
<g id="node4" class="node"><title>\\sambhuti\\cache\\cache</title>
<a xlink:href="framework.cache.cache.html" xlink:title="cache" target="_parent">
<polygon fill="none" stroke="black" points="252,-864 198,-864 198,-828 252,-828 252,-864"/>
<text text-anchor="middle" x="225" y="-843.2" font-family="Courier,monospace" font-size="11.00">cache</text>
</a>
</g>
<!-- \\sambhuti\\core\\container -->
<g id="node16" class="node"><title>\\sambhuti\\core\\container</title>
<a xlink:href="framework.core.container.html" xlink:title="«abstract»&lt;br/&gt;container" target="_parent">
<polygon fill="none" stroke="black" points="109.5,-248 24.5,-248 24.5,-212 109.5,-212 109.5,-248"/>
<text text-anchor="start" x="33" y="-233.7" font-family="Courier,monospace" font-size="11.00">«abstract»</text>
<text text-anchor="start" x="36.5" y="-222.7" font-family="Courier,monospace" font-size="11.00">container</text>
</a>
</g>
<!-- \\sambhuti\\cache\\cache&#45;&gt;\\sambhuti\\core\\container -->
<g id="edge25" class="edge"><title>\\sambhuti\\cache\\cache&#45;&gt;\\sambhuti\\core\\container</title>
<path fill="none" stroke="black" d="M197.896,-837.291C189.039,-833.091 179.903,-827.149 174,-819 107.409,-727.064 77.2679,-362.932 69.8691,-258.271"/>
<polygon fill="none" stroke="black" points="73.3514,-257.892 69.1685,-248.158 66.3681,-258.376 73.3514,-257.892"/>
</g>
<!-- \\sambhuti\\cache\\face -->
<g id="node5" class="node"><title>\\sambhuti\\cache\\face</title>
<a xlink:href="framework.cache.face.html" xlink:title="face" target="_parent">
<polygon fill="none" stroke="black" points="252,-810 198,-810 198,-774 252,-774 252,-810"/>
<text text-anchor="middle" x="225" y="-789.2" font-family="Courier,monospace" font-size="11.00">face</text>
</a>
</g>
<!-- \\sambhuti\\config\\config -->
<g id="node7" class="node"><title>\\sambhuti\\config\\config</title>
<a xlink:href="framework.config.config.html" xlink:title="config" target="_parent">
<polygon fill="none" stroke="black" points="253.5,-730 196.5,-730 196.5,-694 253.5,-694 253.5,-730"/>
<text text-anchor="middle" x="225" y="-709.2" font-family="Courier,monospace" font-size="11.00">config</text>
</a>
</g>
<!-- \\sambhuti\\config\\config&#45;&gt;\\sambhuti\\core\\container -->
<g id="edge27" class="edge"><title>\\sambhuti\\config\\config&#45;&gt;\\sambhuti\\core\\container</title>
<path fill="none" stroke="black" d="M196.272,-700.546C188.016,-695.903 179.669,-689.769 174,-682 75.7371,-547.333 67.0615,-335.229 67.354,-258.717"/>
<polygon fill="none" stroke="black" points="70.8564,-258.47 67.4527,-248.437 63.8568,-258.403 70.8564,-258.47"/>
</g>
<!-- \\sambhuti\\controller\\controller -->
<g id="node9" class="node"><title>\\sambhuti\\controller\\controller</title>
<a xlink:href="framework.controller.controller.html" xlink:title="controller" target="_parent">
<polygon fill="none" stroke="black" points="424,-650 340,-650 340,-614 424,-614 424,-650"/>
<text text-anchor="middle" x="382" y="-629.2" font-family="Courier,monospace" font-size="11.00">controller</text>
</a>
</g>
<!-- \\sambhuti\\controller\\controller&#45;&gt;\\sambhuti\\core\\container -->
<g id="edge15" class="edge"><title>\\sambhuti\\controller\\controller&#45;&gt;\\sambhuti\\core\\container</title>
<path fill="none" stroke="black" d="M339.903,-620.536C293.5,-605.59 218.666,-575.135 174,-524 104.252,-444.15 79.2225,-314.905 71.2817,-258.195"/>
<polygon fill="none" stroke="black" points="74.7361,-257.62 69.9518,-248.167 67.7969,-258.541 74.7361,-257.62"/>
</g>
<!-- \\sambhuti\\controller\\home -->
<g id="node10" class="node"><title>\\sambhuti\\controller\\home</title>
<a xlink:href="framework.controller.home.html" xlink:title="home" target="_parent">
<polygon fill="none" stroke="black" points="409,-488 355,-488 355,-452 409,-452 409,-488"/>
<text text-anchor="middle" x="382" y="-467.2" font-family="Courier,monospace" font-size="11.00">home</text>
</a>
</g>
<!-- \\sambhuti\\controller\\base -->
<g id="node13" class="node"><title>\\sambhuti\\controller\\base</title>
<a xlink:href="framework.controller.base.html" xlink:title="«abstract»&lt;br/&gt;base" target="_parent">
<polygon fill="none" stroke="black" points="267.5,-515 182.5,-515 182.5,-479 267.5,-479 267.5,-515"/>
<text text-anchor="start" x="191" y="-500.7" font-family="Courier,monospace" font-size="11.00">«abstract»</text>
<text text-anchor="start" x="211" y="-489.7" font-family="Courier,monospace" font-size="11.00">base</text>
</a>
</g>
<!-- \\sambhuti\\controller\\home&#45;&gt;\\sambhuti\\controller\\base -->
<g id="edge17" class="edge"><title>\\sambhuti\\controller\\home&#45;&gt;\\sambhuti\\controller\\base</title>
<path fill="none" stroke="black" d="M354.706,-474.58C333.661,-478.246 303.498,-483.5 277.662,-488.001"/>
<polygon fill="none" stroke="black" points="276.884,-484.584 267.633,-489.748 278.085,-491.48 276.884,-484.584"/>
</g>
<!-- \\sambhuti\\controller\\_cli -->
<g id="node11" class="node"><title>\\sambhuti\\controller\\_cli</title>
<a xlink:href="framework.controller._cli.html" xlink:title="_cli" target="_parent">
<polygon fill="none" stroke="black" points="409,-596 355,-596 355,-560 409,-560 409,-596"/>
<text text-anchor="middle" x="382" y="-575.2" font-family="Courier,monospace" font-size="11.00">_cli</text>
</a>
</g>
<!-- \\sambhuti\\controller\\_cli&#45;&gt;\\sambhuti\\controller\\base -->
<g id="edge19" class="edge"><title>\\sambhuti\\controller\\_cli&#45;&gt;\\sambhuti\\controller\\base</title>
<path fill="none" stroke="black" d="M354.706,-564.259C331.427,-552.094 296.989,-534.098 269.593,-519.781"/>
<polygon fill="none" stroke="black" points="271.082,-516.61 260.598,-515.08 267.84,-522.814 271.082,-516.61"/>
</g>
<!-- \\sambhuti\\controller\\_error -->
<g id="node12" class="node"><title>\\sambhuti\\controller\\_error</title>
<a xlink:href="framework.controller._error.html" xlink:title="_error" target="_parent">
<polygon fill="none" stroke="black" points="410.5,-542 353.5,-542 353.5,-506 410.5,-506 410.5,-542"/>
<text text-anchor="middle" x="382" y="-521.2" font-family="Courier,monospace" font-size="11.00">_error</text>
</a>
</g>
<!-- \\sambhuti\\controller\\_error&#45;&gt;\\sambhuti\\controller\\base -->
<g id="edge21" class="edge"><title>\\sambhuti\\controller\\_error&#45;&gt;\\sambhuti\\controller\\base</title>
<path fill="none" stroke="black" d="M353.289,-519.173C332.396,-515.533 303.13,-510.436 277.928,-506.045"/>
<polygon fill="none" stroke="black" points="278.227,-502.545 267.775,-504.277 277.026,-509.441 278.227,-502.545"/>
</g>
<!-- \\sambhuti\\controller\\base&#45;&gt;\\sambhuti\\core\\container -->
<g id="edge23" class="edge"><title>\\sambhuti\\controller\\base&#45;&gt;\\sambhuti\\core\\container</title>
<path fill="none" stroke="black" d="M206.07,-478.974C195.927,-468.215 183.427,-453.965 174,-440 132.627,-378.708 96.751,-299.061 79.2939,-257.688"/>
<polygon fill="none" stroke="black" points="82.4424,-256.145 75.3587,-248.266 75.9832,-258.843 82.4424,-256.145"/>
</g>
<!-- \\sambhuti\\core\\boot -->
<g id="node15" class="node"><title>\\sambhuti\\core\\boot</title>
<a xlink:href="framework.core.boot.html" xlink:title="boot" target="_parent">
<polygon fill="none" stroke="black" points="252,-248 198,-248 198,-212 252,-212 252,-248"/>
<text text-anchor="middle" x="225" y="-227.2" font-family="Courier,monospace" font-size="11.00">boot</text>
</a>
</g>
<!-- \\sambhuti\\core\\dataFace -->
<g id="node17" class="node"><title>\\sambhuti\\core\\dataFace</title>
<a xlink:href="framework.core.dataFace.html" xlink:title="dataFace" target="_parent">
<polygon fill="none" stroke="black" points="102.5,-140 31.5,-140 31.5,-104 102.5,-104 102.5,-140"/>
<text text-anchor="middle" x="67" y="-119.2" font-family="Courier,monospace" font-size="11.00">dataFace</text>
</a>
</g>
<!-- \\sambhuti\\core\\core -->
<g id="node18" class="node"><title>\\sambhuti\\core\\core</title>
<a xlink:href="framework.core.core.html" xlink:title="core" target="_parent">
<polygon fill="none" stroke="black" points="252,-194 198,-194 198,-158 252,-158 252,-194"/>
<text text-anchor="middle" x="225" y="-173.2" font-family="Courier,monospace" font-size="11.00">core</text>
</a>
</g>
<!-- \\sambhuti\\core\\core&#45;&gt;\\sambhuti\\core\\container -->
<g id="edge29" class="edge"><title>\\sambhuti\\core\\core&#45;&gt;\\sambhuti\\core\\container</title>
<path fill="none" stroke="black" d="M197.889,-185.038C176.491,-192.445 145.557,-203.153 119.245,-212.261"/>
<polygon fill="none" stroke="black" points="118.092,-208.957 109.787,-215.535 120.381,-215.572 118.092,-208.957"/>
</g>
<!-- \\sambhuti\\core\\data -->
<g id="node19" class="node"><title>\\sambhuti\\core\\data</title>
<a xlink:href="framework.core.data.html" xlink:title="data" target="_parent">
<polygon fill="none" stroke="black" points="252,-140 198,-140 198,-104 252,-104 252,-140"/>
<text text-anchor="middle" x="225" y="-119.2" font-family="Courier,monospace" font-size="11.00">data</text>
</a>
</g>
<!-- \\sambhuti\\core\\data&#45;&gt;\\sambhuti\\core\\dataFace -->
<g id="edge33" class="edge"><title>\\sambhuti\\core\\data&#45;&gt;\\sambhuti\\core\\dataFace</title>
<path fill="none" stroke="black" stroke-dasharray="1,5" d="M197.889,-122C174.739,-122 140.428,-122 112.883,-122"/>
<polygon fill="none" stroke="black" points="112.695,-118.5 102.695,-122 112.695,-125.5 112.695,-118.5"/>
</g>
<!-- \\sambhuti\\loader\\loader -->
<g id="node21" class="node"><title>\\sambhuti\\loader\\loader</title>
<a xlink:href="framework.loader.loader.html" xlink:title="loader" target="_parent">
<polygon fill="none" stroke="black" points="253.5,-408 196.5,-408 196.5,-372 253.5,-372 253.5,-408"/>
<text text-anchor="middle" x="225" y="-387.2" font-family="Courier,monospace" font-size="11.00">loader</text>
</a>
</g>
<!-- \\sambhuti\\loader\\loader&#45;&gt;\\sambhuti\\core\\container -->
<g id="edge11" class="edge"><title>\\sambhuti\\loader\\loader&#45;&gt;\\sambhuti\\core\\container</title>
<path fill="none" stroke="black" d="M196.364,-375.731C188.748,-371.198 180.735,-365.831 174,-360 138.042,-328.869 104.821,-284.547 85.48,-256.536"/>
<polygon fill="none" stroke="black" points="88.2242,-254.348 79.7024,-248.052 82.4384,-258.288 88.2242,-254.348"/>
</g>
<!-- \\sambhuti\\model\\model -->
<g id="node23" class="node"><title>\\sambhuti\\model\\model</title>
<a xlink:href="framework.model.model.html" xlink:title="model" target="_parent">
<polygon fill="none" stroke="black" points="252,-328 198,-328 198,-292 252,-292 252,-328"/>
<text text-anchor="middle" x="225" y="-307.2" font-family="Courier,monospace" font-size="11.00">model</text>
</a>
</g>
<!-- \\sambhuti\\model\\model&#45;&gt;\\sambhuti\\core\\container -->
<g id="edge31" class="edge"><title>\\sambhuti\\model\\model&#45;&gt;\\sambhuti\\core\\container</title>
<path fill="none" stroke="black" d="M197.889,-296.61C174.589,-284.661 139.982,-266.914 112.348,-252.743"/>
<polygon fill="none" stroke="black" points="113.765,-249.536 103.27,-248.087 110.571,-255.765 113.765,-249.536"/>
</g>
<!-- \\sambhuti\\request\\request -->
<g id="node25" class="node"><title>\\sambhuti\\request\\request</title>
<a xlink:href="framework.request.request.html" xlink:title="request" target="_parent">
<polygon fill="none" stroke="black" points="257,-60 193,-60 193,-24 257,-24 257,-60"/>
<text text-anchor="middle" x="225" y="-39.2" font-family="Courier,monospace" font-size="11.00">request</text>
</a>
</g>
<!-- \\sambhuti\\request\\request&#45;&gt;\\sambhuti\\core\\container -->
<g id="edge13" class="edge"><title>\\sambhuti\\request\\request&#45;&gt;\\sambhuti\\core\\container</title>
<path fill="none" stroke="black" d="M204.405,-60.4314C194.923,-69.6375 183.554,-81.1113 174,-92 141.317,-129.249 106.998,-175.42 86.5579,-203.787"/>
<polygon fill="none" stroke="black" points="83.6595,-201.823 80.6772,-211.99 89.3484,-205.902 83.6595,-201.823"/>
</g>
</g>
</svg>
