<?xml version="1.0" encoding="UTF-8" standalone="no"?>
<!DOCTYPE svg PUBLIC "-//W3C//DTD SVG 1.1//EN"
 "http://www.w3.org/Graphics/SVG/1.1/DTD/svg11.dtd">
<!-- Generated by graphviz version 2.28.0 (20111025.1818)
 -->
<!-- Title: G Pages: 1 -->
<svg width="612pt" height="990pt"
 viewBox="0.00 0.00 612.00 990.00" xmlns="http://www.w3.org/2000/svg" xmlns:xlink="http://www.w3.org/1999/xlink">
<g id="graph1" class="graph" transform="scale(1 1) rotate(0) translate(4 986)">
<title>G</title>
<polygon fill="white" stroke="white" points="-4,5 -4,-986 609,-986 609,5 -4,5"/>
<g id="graph3" class="cluster"><title>cluster_sambhuti</title>
<polyline fill="none" stroke="gray" points="20,-8 584,-8 "/>
<path fill="none" stroke="gray" d="M584,-8C590,-8 596,-14 596,-20"/>
<polyline fill="none" stroke="gray" points="596,-20 596,-962 "/>
<path fill="none" stroke="gray" d="M596,-962C596,-968 590,-974 584,-974"/>
<polyline fill="none" stroke="gray" points="584,-974 20,-974 "/>
<path fill="none" stroke="gray" d="M20,-974C14,-974 8,-968 8,-962"/>
<polyline fill="none" stroke="gray" points="8,-962 8,-20 "/>
<path fill="none" stroke="gray" d="M8,-20C8,-14 14,-8 20,-8"/>
<text text-anchor="middle" x="302" y="-961.2" font-family="Times,serif" font-size="11.00" fill="gray">sambhuti</text>
</g>
<g id="graph4" class="cluster"><title>cluster_sambhuti\cache</title>
<polyline fill="none" stroke="gray" points="188,-820 422,-820 "/>
<path fill="none" stroke="gray" d="M422,-820C428,-820 434,-826 434,-832"/>
<polyline fill="none" stroke="gray" points="434,-832 434,-934 "/>
<path fill="none" stroke="gray" d="M434,-934C434,-940 428,-946 422,-946"/>
<polyline fill="none" stroke="gray" points="422,-946 188,-946 "/>
<path fill="none" stroke="gray" d="M188,-946C182,-946 176,-940 176,-934"/>
<polyline fill="none" stroke="gray" points="176,-934 176,-832 "/>
<path fill="none" stroke="gray" d="M176,-832C176,-826 182,-820 188,-820"/>
<text text-anchor="middle" x="305" y="-933.2" font-family="Times,serif" font-size="11.00" fill="gray">cache</text>
</g>
<g id="graph5" class="cluster"><title>cluster_sambhuti\config</title>
<polyline fill="none" stroke="gray" points="188,-740 422,-740 "/>
<path fill="none" stroke="gray" d="M422,-740C428,-740 434,-746 434,-752"/>
<polyline fill="none" stroke="gray" points="434,-752 434,-800 "/>
<path fill="none" stroke="gray" d="M434,-800C434,-806 428,-812 422,-812"/>
<polyline fill="none" stroke="gray" points="422,-812 188,-812 "/>
<path fill="none" stroke="gray" d="M188,-812C182,-812 176,-806 176,-800"/>
<polyline fill="none" stroke="gray" points="176,-800 176,-752 "/>
<path fill="none" stroke="gray" d="M176,-752C176,-746 182,-740 188,-740"/>
<text text-anchor="middle" x="305" y="-799.2" font-family="Times,serif" font-size="11.00" fill="gray">config</text>
</g>
<g id="graph6" class="cluster"><title>cluster_sambhuti\controller</title>
<polyline fill="none" stroke="gray" points="184,-498 576,-498 "/>
<path fill="none" stroke="gray" d="M576,-498C582,-498 588,-504 588,-510"/>
<polyline fill="none" stroke="gray" points="588,-510 588,-720 "/>
<path fill="none" stroke="gray" d="M588,-720C588,-726 582,-732 576,-732"/>
<polyline fill="none" stroke="gray" points="576,-732 184,-732 "/>
<path fill="none" stroke="gray" d="M184,-732C178,-732 172,-726 172,-720"/>
<polyline fill="none" stroke="gray" points="172,-720 172,-510 "/>
<path fill="none" stroke="gray" d="M172,-510C172,-504 178,-498 184,-498"/>
<text text-anchor="middle" x="380" y="-719.2" font-family="Times,serif" font-size="11.00" fill="gray">controller</text>
</g>
<g id="graph7" class="cluster"><title>cluster_sambhuti\core</title>
<polyline fill="none" stroke="gray" points="28,-96 410,-96 "/>
<path fill="none" stroke="gray" d="M410,-96C416,-96 422,-102 422,-108"/>
<polyline fill="none" stroke="gray" points="422,-108 422,-264 "/>
<path fill="none" stroke="gray" d="M422,-264C422,-270 416,-276 410,-276"/>
<polyline fill="none" stroke="gray" points="410,-276 28,-276 "/>
<path fill="none" stroke="gray" d="M28,-276C22,-276 16,-270 16,-264"/>
<polyline fill="none" stroke="gray" points="16,-264 16,-108 "/>
<path fill="none" stroke="gray" d="M16,-108C16,-102 22,-96 28,-96"/>
<text text-anchor="middle" x="219" y="-263.2" font-family="Times,serif" font-size="11.00" fill="gray">core</text>
</g>
<g id="graph8" class="cluster"><title>cluster_sambhuti\loader</title>
<polyline fill="none" stroke="gray" points="188,-418 422,-418 "/>
<path fill="none" stroke="gray" d="M422,-418C428,-418 434,-424 434,-430"/>
<polyline fill="none" stroke="gray" points="434,-430 434,-478 "/>
<path fill="none" stroke="gray" d="M434,-478C434,-484 428,-490 422,-490"/>
<polyline fill="none" stroke="gray" points="422,-490 188,-490 "/>
<path fill="none" stroke="gray" d="M188,-490C182,-490 176,-484 176,-478"/>
<polyline fill="none" stroke="gray" points="176,-478 176,-430 "/>
<path fill="none" stroke="gray" d="M176,-430C176,-424 182,-418 188,-418"/>
<text text-anchor="middle" x="305" y="-477.2" font-family="Times,serif" font-size="11.00" fill="gray">loader</text>
</g>
<g id="graph9" class="cluster"><title>cluster_sambhuti\model</title>
<polyline fill="none" stroke="gray" points="188,-284 426,-284 "/>
<path fill="none" stroke="gray" d="M426,-284C432,-284 438,-290 438,-296"/>
<polyline fill="none" stroke="gray" points="438,-296 438,-398 "/>
<path fill="none" stroke="gray" d="M438,-398C438,-404 432,-410 426,-410"/>
<polyline fill="none" stroke="gray" points="426,-410 188,-410 "/>
<path fill="none" stroke="gray" d="M188,-410C182,-410 176,-404 176,-398"/>
<polyline fill="none" stroke="gray" points="176,-398 176,-296 "/>
<path fill="none" stroke="gray" d="M176,-296C176,-290 182,-284 188,-284"/>
<text text-anchor="middle" x="307" y="-397.2" font-family="Times,serif" font-size="11.00" fill="gray">model</text>
</g>
<g id="graph10" class="cluster"><title>cluster_sambhuti\request</title>
<polyline fill="none" stroke="gray" points="188,-16 422,-16 "/>
<path fill="none" stroke="gray" d="M422,-16C428,-16 434,-22 434,-28"/>
<polyline fill="none" stroke="gray" points="434,-28 434,-76 "/>
<path fill="none" stroke="gray" d="M434,-76C434,-82 428,-88 422,-88"/>
<polyline fill="none" stroke="gray" points="422,-88 188,-88 "/>
<path fill="none" stroke="gray" d="M188,-88C182,-88 176,-82 176,-76"/>
<polyline fill="none" stroke="gray" points="176,-76 176,-28 "/>
<path fill="none" stroke="gray" d="M176,-28C176,-22 182,-16 188,-16"/>
<text text-anchor="middle" x="305" y="-75.2" font-family="Times,serif" font-size="11.00" fill="gray">request</text>
</g>
<!-- \\sambhuti\\cache\\container -->
<g id="node4" class="node"><title>\\sambhuti\\cache\\container</title>
<a xlink:href="cache.container.html" xlink:title="container" target="_parent">
<polygon fill="none" stroke="black" points="425.5,-918 348.5,-918 348.5,-882 425.5,-882 425.5,-918"/>
<text text-anchor="middle" x="387" y="-897.2" font-family="Courier,monospace" font-size="11.00">container</text>
</a>
</g>
<!-- \\sambhuti\\cache\\iContainer -->
<g id="node6" class="node"><title>\\sambhuti\\cache\\iContainer</title>
<a xlink:href="cache.iContainer.html" xlink:title="iContainer" target="_parent">
<polygon fill="none" stroke="black" points="268,-891 184,-891 184,-855 268,-855 268,-891"/>
<text text-anchor="middle" x="226" y="-870.2" font-family="Courier,monospace" font-size="11.00">iContainer</text>
</a>
</g>
<!-- \\sambhuti\\cache\\container&#45;&gt;\\sambhuti\\cache\\iContainer -->
<g id="edge41" class="edge"><title>\\sambhuti\\cache\\container&#45;&gt;\\sambhuti\\cache\\iContainer</title>
<path fill="none" stroke="black" stroke-dasharray="1,5" d="M348.319,-893.601C327.281,-890.029 300.779,-885.529 277.917,-881.646"/>
<polygon fill="none" stroke="black" points="278.48,-878.192 268.035,-879.968 277.308,-885.093 278.48,-878.192"/>
</g>
<!-- \\sambhuti\\cache\\iCache -->
<g id="node5" class="node"><title>\\sambhuti\\cache\\iCache</title>
<a xlink:href="cache.iCache.html" xlink:title="iCache" target="_parent">
<polygon fill="none" stroke="black" points="415.5,-864 358.5,-864 358.5,-828 415.5,-828 415.5,-864"/>
<text text-anchor="middle" x="387" y="-843.2" font-family="Courier,monospace" font-size="11.00">iCache</text>
</a>
</g>
<!-- \\sambhuti\\core\\iContainer -->
<g id="node20" class="node"><title>\\sambhuti\\core\\iContainer</title>
<a xlink:href="core.iContainer.html" xlink:title="iContainer" target="_parent">
<polygon fill="none" stroke="black" points="108,-248 24,-248 24,-212 108,-212 108,-248"/>
<text text-anchor="middle" x="66" y="-227.2" font-family="Courier,monospace" font-size="11.00">iContainer</text>
</a>
</g>
<!-- \\sambhuti\\cache\\iContainer&#45;&gt;\\sambhuti\\core\\iContainer -->
<g id="edge25" class="edge"><title>\\sambhuti\\cache\\iContainer&#45;&gt;\\sambhuti\\core\\iContainer</title>
<path fill="none" stroke="black" d="M202.961,-854.871C191.951,-844.609 179.426,-830.869 172,-816 74.0203,-619.809 66.3265,-346.29 66.5637,-258.392"/>
<polygon fill="none" stroke="black" points="70.0651,-258.175 66.6312,-248.153 63.0652,-258.129 70.0651,-258.175"/>
</g>
<!-- \\sambhuti\\config\\container -->
<g id="node8" class="node"><title>\\sambhuti\\config\\container</title>
<a xlink:href="config.container.html" xlink:title="container" target="_parent">
<polygon fill="none" stroke="black" points="425.5,-784 348.5,-784 348.5,-748 425.5,-748 425.5,-784"/>
<text text-anchor="middle" x="387" y="-763.2" font-family="Courier,monospace" font-size="11.00">container</text>
</a>
</g>
<!-- \\sambhuti\\config\\iContainer -->
<g id="node9" class="node"><title>\\sambhuti\\config\\iContainer</title>
<a xlink:href="config.iContainer.html" xlink:title="iContainer" target="_parent">
<polygon fill="none" stroke="black" points="268,-784 184,-784 184,-748 268,-748 268,-784"/>
<text text-anchor="middle" x="226" y="-763.2" font-family="Courier,monospace" font-size="11.00">iContainer</text>
</a>
</g>
<!-- \\sambhuti\\config\\container&#45;&gt;\\sambhuti\\config\\iContainer -->
<g id="edge43" class="edge"><title>\\sambhuti\\config\\container&#45;&gt;\\sambhuti\\config\\iContainer</title>
<path fill="none" stroke="black" stroke-dasharray="1,5" d="M348.319,-766C327.375,-766 301.017,-766 278.224,-766"/>
<polygon fill="none" stroke="black" points="278.035,-762.5 268.035,-766 278.035,-769.5 278.035,-762.5"/>
</g>
<!-- \\sambhuti\\config\\iContainer&#45;&gt;\\sambhuti\\core\\iContainer -->
<g id="edge27" class="edge"><title>\\sambhuti\\config\\iContainer&#45;&gt;\\sambhuti\\core\\iContainer</title>
<path fill="none" stroke="black" d="M184.104,-747.866C179.509,-744.466 175.302,-740.527 172,-736 115.047,-657.915 79.5876,-352.875 69.7823,-258.192"/>
<polygon fill="none" stroke="black" points="73.2606,-257.8 68.7632,-248.207 66.2968,-258.51 73.2606,-257.8"/>
</g>
<!-- \\sambhuti\\controller\\container -->
<g id="node11" class="node"><title>\\sambhuti\\controller\\container</title>
<a xlink:href="controller.container.html" xlink:title="container" target="_parent">
<polygon fill="none" stroke="black" points="579.5,-704 502.5,-704 502.5,-668 579.5,-668 579.5,-704"/>
<text text-anchor="middle" x="541" y="-683.2" font-family="Courier,monospace" font-size="11.00">container</text>
</a>
</g>
<!-- \\sambhuti\\controller\\iContainer -->
<g id="node14" class="node"><title>\\sambhuti\\controller\\iContainer</title>
<a xlink:href="controller.iContainer.html" xlink:title="iContainer" target="_parent">
<polygon fill="none" stroke="black" points="429,-690 345,-690 345,-654 429,-654 429,-690"/>
<text text-anchor="middle" x="387" y="-669.2" font-family="Courier,monospace" font-size="11.00">iContainer</text>
</a>
</g>
<!-- \\sambhuti\\controller\\container&#45;&gt;\\sambhuti\\controller\\iContainer -->
<g id="edge37" class="edge"><title>\\sambhuti\\controller\\container&#45;&gt;\\sambhuti\\controller\\iContainer</title>
<path fill="none" stroke="black" stroke-dasharray="1,5" d="M502.427,-682.539C483.4,-680.787 460.011,-678.633 439.349,-676.73"/>
<polygon fill="none" stroke="black" points="439.423,-673.222 429.144,-675.79 438.781,-680.192 439.423,-673.222"/>
</g>
<!-- \\sambhuti\\controller\\controller -->
<g id="node12" class="node"><title>\\sambhuti\\controller\\controller</title>
<a xlink:href="controller.controller.html" xlink:title="«abstract»&lt;br/&gt;controller" target="_parent">
<polygon fill="none" stroke="black" points="429.5,-582 344.5,-582 344.5,-546 429.5,-546 429.5,-582"/>
<text text-anchor="start" x="353" y="-567.7" font-family="Courier,monospace" font-size="11.00">«abstract»</text>
<text text-anchor="start" x="353" y="-556.7" font-family="Courier,monospace" font-size="11.00">controller</text>
</a>
</g>
<!-- \\sambhuti\\controller\\iController -->
<g id="node15" class="node"><title>\\sambhuti\\controller\\iController</title>
<a xlink:href="controller.iController.html" xlink:title="iController" target="_parent">
<polygon fill="none" stroke="black" points="271.5,-555 180.5,-555 180.5,-519 271.5,-519 271.5,-555"/>
<text text-anchor="middle" x="226" y="-534.2" font-family="Courier,monospace" font-size="11.00">iController</text>
</a>
</g>
<!-- \\sambhuti\\controller\\controller&#45;&gt;\\sambhuti\\controller\\iController -->
<g id="edge39" class="edge"><title>\\sambhuti\\controller\\controller&#45;&gt;\\sambhuti\\controller\\iController</title>
<path fill="none" stroke="black" stroke-dasharray="1,5" d="M344.225,-556.906C325.01,-553.643 301.969,-549.731 281.419,-546.241"/>
<polygon fill="none" stroke="black" points="282.003,-542.79 271.558,-544.566 280.831,-549.691 282.003,-542.79"/>
</g>
<!-- \\sambhuti\\controller\\home -->
<g id="node13" class="node"><title>\\sambhuti\\controller\\home</title>
<a xlink:href="controller.home.html" xlink:title="home" target="_parent">
<polygon fill="none" stroke="black" points="568,-650 514,-650 514,-614 568,-614 568,-650"/>
<text text-anchor="middle" x="541" y="-629.2" font-family="Courier,monospace" font-size="11.00">home</text>
</a>
</g>
<!-- \\sambhuti\\controller\\home&#45;&gt;\\sambhuti\\controller\\controller -->
<g id="edge15" class="edge"><title>\\sambhuti\\controller\\home&#45;&gt;\\sambhuti\\controller\\controller</title>
<path fill="none" stroke="black" d="M513.87,-620.31C492.93,-610.942 462.946,-597.528 437.495,-586.143"/>
<polygon fill="none" stroke="black" points="438.906,-582.94 428.349,-582.051 436.048,-589.329 438.906,-582.94"/>
</g>
<!-- \\sambhuti\\controller\\iContainer&#45;&gt;\\sambhuti\\core\\iContainer -->
<g id="edge17" class="edge"><title>\\sambhuti\\controller\\iContainer&#45;&gt;\\sambhuti\\core\\iContainer</title>
<path fill="none" stroke="black" d="M344.852,-661.758C296.67,-647.682 217.658,-617.769 172,-564 93.6864,-471.775 73.6771,-321.043 68.6501,-258.542"/>
<polygon fill="none" stroke="black" points="72.1189,-257.988 67.8973,-248.27 65.1377,-258.499 72.1189,-257.988"/>
</g>
<!-- \\sambhuti\\controller\\iController&#45;&gt;\\sambhuti\\core\\iContainer -->
<g id="edge19" class="edge"><title>\\sambhuti\\controller\\iController&#45;&gt;\\sambhuti\\core\\iContainer</title>
<path fill="none" stroke="black" d="M197.487,-518.983C188.448,-512.024 178.948,-503.452 172,-494 116.361,-418.307 85.3937,-309.122 73.1831,-258.172"/>
<polygon fill="none" stroke="black" points="76.541,-257.16 70.8601,-248.217 69.7242,-258.751 76.541,-257.16"/>
</g>
<!-- \\sambhuti\\controller\\_cli -->
<g id="node16" class="node"><title>\\sambhuti\\controller\\_cli</title>
<a xlink:href="controller._cli.html" xlink:title="_cli" target="_parent">
<polygon fill="none" stroke="black" points="568,-596 514,-596 514,-560 568,-560 568,-596"/>
<text text-anchor="middle" x="541" y="-575.2" font-family="Courier,monospace" font-size="11.00">_cli</text>
</a>
</g>
<!-- \\sambhuti\\controller\\_cli&#45;&gt;\\sambhuti\\controller\\controller -->
<g id="edge21" class="edge"><title>\\sambhuti\\controller\\_cli&#45;&gt;\\sambhuti\\controller\\controller</title>
<path fill="none" stroke="black" d="M513.87,-575.593C493.504,-573.717 464.583,-571.054 439.598,-568.752"/>
<polygon fill="none" stroke="black" points="439.806,-565.257 429.528,-567.825 439.164,-572.227 439.806,-565.257"/>
</g>
<!-- \\sambhuti\\controller\\_error -->
<g id="node17" class="node"><title>\\sambhuti\\controller\\_error</title>
<a xlink:href="controller._error.html" xlink:title="_error" target="_parent">
<polygon fill="none" stroke="black" points="569.5,-542 512.5,-542 512.5,-506 569.5,-506 569.5,-542"/>
<text text-anchor="middle" x="541" y="-521.2" font-family="Courier,monospace" font-size="11.00">_error</text>
</a>
</g>
<!-- \\sambhuti\\controller\\_error&#45;&gt;\\sambhuti\\controller\\controller -->
<g id="edge23" class="edge"><title>\\sambhuti\\controller\\_error&#45;&gt;\\sambhuti\\controller\\controller</title>
<path fill="none" stroke="black" d="M512.474,-531.244C492.172,-536.586 463.95,-544.013 439.511,-550.444"/>
<polygon fill="none" stroke="black" points="438.436,-547.108 429.656,-553.038 440.217,-553.878 438.436,-547.108"/>
</g>
<!-- \\sambhuti\\core\\boot -->
<g id="node19" class="node"><title>\\sambhuti\\core\\boot</title>
<a xlink:href="core.boot.html" xlink:title="boot" target="_parent">
<polygon fill="none" stroke="black" points="414,-248 360,-248 360,-212 414,-212 414,-248"/>
<text text-anchor="middle" x="387" y="-227.2" font-family="Courier,monospace" font-size="11.00">boot</text>
</a>
</g>
<!-- \\sambhuti\\core\\iData -->
<g id="node21" class="node"><title>\\sambhuti\\core\\iData</title>
<a xlink:href="core.iData.html" xlink:title="iData" target="_parent">
<polygon fill="none" stroke="black" points="253,-140 199,-140 199,-104 253,-104 253,-140"/>
<text text-anchor="middle" x="226" y="-119.2" font-family="Courier,monospace" font-size="11.00">iData</text>
</a>
</g>
<!-- \\sambhuti\\core\\iCore -->
<g id="node22" class="node"><title>\\sambhuti\\core\\iCore</title>
<a xlink:href="core.iCore.html" xlink:title="iCore" target="_parent">
<polygon fill="none" stroke="black" points="253,-221 199,-221 199,-185 253,-185 253,-221"/>
<text text-anchor="middle" x="226" y="-200.2" font-family="Courier,monospace" font-size="11.00">iCore</text>
</a>
</g>
<!-- \\sambhuti\\core\\iCore&#45;&gt;\\sambhuti\\core\\iContainer -->
<g id="edge29" class="edge"><title>\\sambhuti\\core\\iCore&#45;&gt;\\sambhuti\\core\\iContainer</title>
<path fill="none" stroke="black" d="M198.91,-207.459C177.07,-211.191 145.247,-216.629 118.329,-221.229"/>
<polygon fill="none" stroke="black" points="117.551,-217.811 108.284,-222.945 118.73,-224.711 117.551,-217.811"/>
</g>
<!-- \\sambhuti\\core\\core -->
<g id="node23" class="node"><title>\\sambhuti\\core\\core</title>
<a xlink:href="core.core.html" xlink:title="core" target="_parent">
<polygon fill="none" stroke="black" points="414,-194 360,-194 360,-158 414,-158 414,-194"/>
<text text-anchor="middle" x="387" y="-173.2" font-family="Courier,monospace" font-size="11.00">core</text>
</a>
</g>
<!-- \\sambhuti\\core\\core&#45;&gt;\\sambhuti\\core\\iCore -->
<g id="edge45" class="edge"><title>\\sambhuti\\core\\core&#45;&gt;\\sambhuti\\core\\iCore</title>
<path fill="none" stroke="black" stroke-dasharray="1,5" d="M359.744,-180.459C333.312,-184.947 292.348,-191.903 262.917,-196.901"/>
<polygon fill="none" stroke="black" points="262.303,-193.455 253.03,-198.58 263.475,-200.356 262.303,-193.455"/>
</g>
<!-- \\sambhuti\\core\\data -->
<g id="node24" class="node"><title>\\sambhuti\\core\\data</title>
<a xlink:href="core.data.html" xlink:title="data" target="_parent">
<polygon fill="none" stroke="black" points="414,-140 360,-140 360,-104 414,-104 414,-140"/>
<text text-anchor="middle" x="387" y="-119.2" font-family="Courier,monospace" font-size="11.00">data</text>
</a>
</g>
<!-- \\sambhuti\\core\\data&#45;&gt;\\sambhuti\\core\\iData -->
<g id="edge47" class="edge"><title>\\sambhuti\\core\\data&#45;&gt;\\sambhuti\\core\\iData</title>
<path fill="none" stroke="black" stroke-dasharray="1,5" d="M359.744,-122C333.428,-122 292.705,-122 263.303,-122"/>
<polygon fill="none" stroke="black" points="263.03,-118.5 253.03,-122 263.03,-125.5 263.03,-118.5"/>
</g>
<!-- \\sambhuti\\loader\\container -->
<g id="node26" class="node"><title>\\sambhuti\\loader\\container</title>
<a xlink:href="loader.container.html" xlink:title="container" target="_parent">
<polygon fill="none" stroke="black" points="425.5,-462 348.5,-462 348.5,-426 425.5,-426 425.5,-462"/>
<text text-anchor="middle" x="387" y="-441.2" font-family="Courier,monospace" font-size="11.00">container</text>
</a>
</g>
<!-- \\sambhuti\\loader\\iContainer -->
<g id="node27" class="node"><title>\\sambhuti\\loader\\iContainer</title>
<a xlink:href="loader.iContainer.html" xlink:title="iContainer" target="_parent">
<polygon fill="none" stroke="black" points="268,-462 184,-462 184,-426 268,-426 268,-462"/>
<text text-anchor="middle" x="226" y="-441.2" font-family="Courier,monospace" font-size="11.00">iContainer</text>
</a>
</g>
<!-- \\sambhuti\\loader\\container&#45;&gt;\\sambhuti\\loader\\iContainer -->
<g id="edge33" class="edge"><title>\\sambhuti\\loader\\container&#45;&gt;\\sambhuti\\loader\\iContainer</title>
<path fill="none" stroke="black" stroke-dasharray="1,5" d="M348.319,-444C327.375,-444 301.017,-444 278.224,-444"/>
<polygon fill="none" stroke="black" points="278.035,-440.5 268.035,-444 278.035,-447.5 278.035,-440.5"/>
</g>
<!-- \\sambhuti\\loader\\iContainer&#45;&gt;\\sambhuti\\core\\iContainer -->
<g id="edge11" class="edge"><title>\\sambhuti\\loader\\iContainer&#45;&gt;\\sambhuti\\core\\iContainer</title>
<path fill="none" stroke="black" d="M186.998,-425.869C181.616,-422.371 176.419,-418.403 172,-414 125.485,-367.646 92.7781,-296.449 77.245,-257.609"/>
<polygon fill="none" stroke="black" points="80.3946,-256.052 73.4946,-248.012 73.8748,-258.6 80.3946,-256.052"/>
</g>
<!-- \\sambhuti\\model\\container -->
<g id="node29" class="node"><title>\\sambhuti\\model\\container</title>
<a xlink:href="model.container.html" xlink:title="container" target="_parent">
<polygon fill="none" stroke="black" points="425.5,-382 348.5,-382 348.5,-346 425.5,-346 425.5,-382"/>
<text text-anchor="middle" x="387" y="-361.2" font-family="Courier,monospace" font-size="11.00">container</text>
</a>
</g>
<!-- \\sambhuti\\model\\iContainer -->
<g id="node30" class="node"><title>\\sambhuti\\model\\iContainer</title>
<a xlink:href="model.iContainer.html" xlink:title="iContainer" target="_parent">
<polygon fill="none" stroke="black" points="268,-355 184,-355 184,-319 268,-319 268,-355"/>
<text text-anchor="middle" x="226" y="-334.2" font-family="Courier,monospace" font-size="11.00">iContainer</text>
</a>
</g>
<!-- \\sambhuti\\model\\container&#45;&gt;\\sambhuti\\model\\iContainer -->
<g id="edge49" class="edge"><title>\\sambhuti\\model\\container&#45;&gt;\\sambhuti\\model\\iContainer</title>
<path fill="none" stroke="black" stroke-dasharray="1,5" d="M348.319,-357.601C327.281,-354.029 300.779,-349.529 277.917,-345.646"/>
<polygon fill="none" stroke="black" points="278.48,-342.192 268.035,-343.968 277.308,-349.093 278.48,-342.192"/>
</g>
<!-- \\sambhuti\\model\\iContainer&#45;&gt;\\sambhuti\\core\\iContainer -->
<g id="edge31" class="edge"><title>\\sambhuti\\model\\iContainer&#45;&gt;\\sambhuti\\core\\iContainer</title>
<path fill="none" stroke="black" d="M198.197,-318.849C171.787,-300.964 131.29,-273.538 102.277,-253.89"/>
<polygon fill="none" stroke="black" points="103.912,-250.771 93.6699,-248.061 99.9873,-256.567 103.912,-250.771"/>
</g>
<!-- \\sambhuti\\model\\model -->
<g id="node31" class="node"><title>\\sambhuti\\model\\model</title>
<a xlink:href="model.model.html" xlink:title="«abstract»&lt;br/&gt;model" target="_parent">
<polygon fill="none" stroke="black" points="429.5,-328 344.5,-328 344.5,-292 429.5,-292 429.5,-328"/>
<text text-anchor="start" x="353" y="-313.7" font-family="Courier,monospace" font-size="11.00">«abstract»</text>
<text text-anchor="start" x="370" y="-302.7" font-family="Courier,monospace" font-size="11.00">model</text>
</a>
</g>
<!-- \\sambhuti\\request\\container -->
<g id="node33" class="node"><title>\\sambhuti\\request\\container</title>
<a xlink:href="request.container.html" xlink:title="container" target="_parent">
<polygon fill="none" stroke="black" points="425.5,-60 348.5,-60 348.5,-24 425.5,-24 425.5,-60"/>
<text text-anchor="middle" x="387" y="-39.2" font-family="Courier,monospace" font-size="11.00">container</text>
</a>
</g>
<!-- \\sambhuti\\request\\iContainer -->
<g id="node34" class="node"><title>\\sambhuti\\request\\iContainer</title>
<a xlink:href="request.iContainer.html" xlink:title="iContainer" target="_parent">
<polygon fill="none" stroke="black" points="268,-60 184,-60 184,-24 268,-24 268,-60"/>
<text text-anchor="middle" x="226" y="-39.2" font-family="Courier,monospace" font-size="11.00">iContainer</text>
</a>
</g>
<!-- \\sambhuti\\request\\container&#45;&gt;\\sambhuti\\request\\iContainer -->
<g id="edge35" class="edge"><title>\\sambhuti\\request\\container&#45;&gt;\\sambhuti\\request\\iContainer</title>
<path fill="none" stroke="black" stroke-dasharray="1,5" d="M348.319,-42C327.375,-42 301.017,-42 278.224,-42"/>
<polygon fill="none" stroke="black" points="278.035,-38.5001 268.035,-42 278.035,-45.5001 278.035,-38.5001"/>
</g>
<!-- \\sambhuti\\request\\iContainer&#45;&gt;\\sambhuti\\core\\iContainer -->
<g id="edge13" class="edge"><title>\\sambhuti\\request\\iContainer&#45;&gt;\\sambhuti\\core\\iContainer</title>
<path fill="none" stroke="black" d="M204.358,-60.016C194.226,-69.2165 182.066,-80.8075 172,-92 138.978,-128.716 105.165,-175.038 85.1322,-203.581"/>
<polygon fill="none" stroke="black" points="82.2232,-201.634 79.3736,-211.839 87.9648,-205.638 82.2232,-201.634"/>
</g>
</g>
</svg>
